<?xml version="1.0" encoding="utf-8" standalone="no"?>
<root>
  <header>
    <songinfo tempo="150" tpm="1536" start_tick="0" end_tick="135168" tick="135168" ms="140800" tps="960" />
  </header>
  <tempo>
    <tempo tick="0" tempo="150" tps="960" />
  </tempo>
  <note_list>
    <track idx="3">
      <note tick="3264" />
      <note tick="4224" />
      <note tick="4320" />
      <note tick="4416" />
      <note tick="4512" />
      <note tick="5088" />
      <note tick="5184" />
      <note tick="5280" />
      <note tick="5856" />
      <note tick="5952" />
      <note tick="6528" />
      <note tick="6624" />
      <note tick="6720" />
      <note tick="6816" />
      <note tick="7104" />
      <note tick="7488" />
      <note tick="9024" />
      <note tick="9408" />
      <note tick="11328" />
      <note tick="11520" />
      <note tick="11808" />
      <note tick="12288" />
      <note tick="15360" />
      <note tick="16896" />
      <note tick="18432" />
      <note tick="19200" />
      <note tick="19968" />
      <note tick="21888" />
      <note tick="22656" />
      <note tick="23424" />
      <note tick="24192" />
      <note tick="26112" />
      <note tick="27456" />
      <note tick="28416" />
      <note tick="29184" />
      <note tick="29952" />
      <note tick="30912" />
      <note tick="31296" />
      <note tick="32256" />
      <note tick="33024" />
      <note tick="33600" />
      <note tick="33792" />
      <note tick="34560" />
      <note tick="35328" />
      <note tick="35712" />
      <note tick="36096" />
      <note tick="36480" />
      <note tick="36864" />
      <note tick="39264" />
      <note tick="39360" />
      <note tick="39744" />
      <note tick="39936" />
      <note tick="40704" />
      <note tick="41472" />
      <note tick="42432" />
      <note tick="43584" />
      <note tick="44544" />
      <note tick="45312" />
      <note tick="45504" />
      <note tick="46080" />
      <note tick="46848" />
      <note tick="47424" />
      <note tick="47616" />
      <note tick="48384" />
      <note tick="48576" />
      <note tick="49152" />
      <note tick="50880" />
      <note tick="51456" />
      <note tick="51840" />
      <note tick="53952" />
      <note tick="54912" />
      <note tick="55296" />
      <note tick="55584" />
      <note tick="56832" />
      <note tick="57120" />
      <note tick="59328" />
      <note tick="60096" />
      <note tick="61440" />
      <note tick="63168" />
      <note tick="63360" />
      <note tick="63744" />
      <note tick="64320" />
      <note tick="64512" />
      <note tick="66048" />
      <note tick="69120" />
      <note tick="69984" />
      <note tick="70080" />
      <note tick="70656" />
      <note tick="71808" />
      <note tick="72192" />
      <note tick="72384" />
      <note tick="72576" />
      <note tick="72768" />
      <note tick="73728" />
      <note tick="73920" />
      <note tick="74112" />
      <note tick="74304" />
      <note tick="74496" />
      <note tick="74688" />
      <note tick="74880" />
      <note tick="75072" />
      <note tick="75456" />
      <note tick="76032" />
      <note tick="76224" />
      <note tick="76608" />
      <note tick="77568" />
      <note tick="78336" />
      <note tick="79104" />
      <note tick="79296" />
      <note tick="79872" />
      <note tick="81216" />
      <note tick="81792" />
      <note tick="82176" />
      <note tick="82560" />
      <note tick="83136" />
      <note tick="85824" />
      <note tick="86208" />
      <note tick="88128" />
      <note tick="88704" />
      <note tick="89088" />
      <note tick="89856" />
      <note tick="91392" />
      <note tick="91584" />
      <note tick="92352" />
      <note tick="93696" />
      <note tick="94464" />
      <note tick="95040" />
    </track>
    <track idx="4">
      <note tick="4128" />
      <note tick="4992" />
      <note tick="5376" />
      <note tick="5568" />
      <note tick="5664" />
      <note tick="5760" />
      <note tick="6432" />
      <note tick="6528" />
      <note tick="6624" />
      <note tick="6720" />
      <note tick="7104" />
      <note tick="7200" />
      <note tick="7296" />
      <note tick="7392" />
      <note tick="7488" />
      <note tick="8064" />
      <note tick="8736" />
      <note tick="9792" />
      <note tick="10176" />
      <note tick="10560" />
      <note tick="10944" />
      <note tick="11136" />
      <note tick="12096" />
      <note tick="12864" />
      <note tick="13248" />
      <note tick="13632" />
      <note tick="14016" />
      <note tick="14784" />
      <note tick="15072" />
      <note tick="16128" />
      <note tick="17664" />
      <note tick="17856" />
      <note tick="20736" />
      <note tick="20928" />
      <note tick="21408" />
      <note tick="24960" />
      <note tick="25728" />
      <note tick="26880" />
      <note tick="27552" />
      <note tick="27840" />
      <note tick="28224" />
      <note tick="28608" />
      <note tick="28992" />
      <note tick="29568" />
      <note tick="30144" />
      <note tick="30720" />
      <note tick="31872" />
      <note tick="32256" />
      <note tick="33408" />
      <note tick="33696" />
      <note tick="34176" />
      <note tick="34944" />
      <note tick="35520" />
      <note tick="35904" />
      <note tick="36288" />
      <note tick="36672" />
      <note tick="37632" />
      <note tick="38976" />
      <note tick="39072" />
      <note tick="39552" />
      <note tick="40320" />
      <note tick="41088" />
      <note tick="42240" />
      <note tick="43776" />
      <note tick="44160" />
      <note tick="44928" />
      <note tick="45696" />
      <note tick="46080" />
      <note tick="46656" />
      <note tick="47232" />
      <note tick="48000" />
      <note tick="49152" />
      <note tick="49920" />
      <note tick="50688" />
      <note tick="51648" />
      <note tick="52032" />
      <note tick="52608" />
      <note tick="53760" />
      <note tick="56352" />
      <note tick="56640" />
      <note tick="56832" />
      <note tick="57120" />
      <note tick="59136" />
      <note tick="59904" />
      <note tick="60864" />
      <note tick="61056" />
      <note tick="61248" />
      <note tick="62592" />
      <note tick="62784" />
      <note tick="63744" />
      <note tick="63936" />
      <note tick="64320" />
      <note tick="66816" />
      <note tick="69120" />
      <note tick="69696" />
      <note tick="69792" />
      <note tick="70272" />
      <note tick="70464" />
      <note tick="71424" />
      <note tick="71616" />
      <note tick="71808" />
      <note tick="72000" />
      <note tick="72192" />
      <note tick="72960" />
      <note tick="73152" />
      <note tick="74304" />
      <note tick="75264" />
      <note tick="75648" />
      <note tick="76032" />
      <note tick="76224" />
      <note tick="76416" />
      <note tick="76800" />
      <note tick="78720" />
      <note tick="79488" />
      <note tick="80832" />
      <note tick="81408" />
      <note tick="82368" />
      <note tick="82560" />
      <note tick="82944" />
      <note tick="83136" />
      <note tick="84672" />
      <note tick="85056" />
      <note tick="85824" />
      <note tick="86016" />
      <note tick="86976" />
      <note tick="87936" />
      <note tick="88320" />
      <note tick="88512" />
      <note tick="89280" />
      <note tick="90624" />
      <note tick="92160" />
      <note tick="92928" />
      <note tick="93888" />
      <note tick="94272" />
      <note tick="94464" />
      <note tick="94656" />
      <note tick="95136" />
    </track>
    <track idx="5">
      <note tick="4224" />
      <note tick="4320" />
      <note tick="4416" />
      <note tick="4512" />
      <note tick="5088" />
      <note tick="5184" />
      <note tick="5280" />
      <note tick="5856" />
      <note tick="5952" />
      <note tick="6528" />
      <note tick="6624" />
      <note tick="6720" />
      <note tick="6816" />
      <note tick="7104" />
      <note tick="7488" />
      <note tick="8448" />
      <note tick="9024" />
      <note tick="9792" />
      <note tick="10176" />
      <note tick="10560" />
      <note tick="12096" />
      <note tick="12864" />
      <note tick="13248" />
      <note tick="13632" />
      <note tick="14208" />
      <note tick="14976" />
      <note tick="18816" />
      <note tick="19584" />
      <note tick="20832" />
      <note tick="21312" />
      <note tick="22272" />
      <note tick="23808" />
      <note tick="24000" />
      <note tick="26496" />
      <note tick="26976" />
      <note tick="27264" />
      <note tick="27648" />
      <note tick="28032" />
      <note tick="28800" />
      <note tick="30144" />
      <note tick="30528" />
      <note tick="31104" />
      <note tick="31680" />
      <note tick="32064" />
      <note tick="32448" />
      <note tick="32832" />
      <note tick="33216" />
      <note tick="33792" />
      <note tick="34176" />
      <note tick="34560" />
      <note tick="34944" />
      <note tick="35328" />
      <note tick="36096" />
      <note tick="36288" />
      <note tick="37248" />
      <note tick="38016" />
      <note tick="38688" />
      <note tick="38784" />
      <note tick="39744" />
      <note tick="40320" />
      <note tick="40608" />
      <note tick="41088" />
      <note tick="41472" />
      <note tick="42624" />
      <note tick="43200" />
      <note tick="43392" />
      <note tick="43968" />
      <note tick="44544" />
      <note tick="45312" />
      <note tick="45888" />
      <note tick="46464" />
      <note tick="46848" />
      <note tick="48000" />
      <note tick="48960" />
      <note tick="50304" />
      <note tick="51264" />
      <note tick="51456" />
      <note tick="51840" />
      <note tick="52992" />
      <note tick="53568" />
      <note tick="54144" />
      <note tick="54720" />
      <note tick="54912" />
      <note tick="55104" />
      <note tick="56256" />
      <note tick="56448" />
      <note tick="57024" />
      <note tick="58752" />
      <note tick="59712" />
      <note tick="60096" />
      <note tick="60480" />
      <note tick="61728" />
      <note tick="62400" />
      <note tick="62976" />
      <note tick="64128" />
      <note tick="66048" />
      <note tick="67584" />
      <note tick="69408" />
      <note tick="69504" />
      <note tick="70272" />
      <note tick="70464" />
      <note tick="70656" />
      <note tick="70848" />
      <note tick="71040" />
      <note tick="71232" />
      <note tick="72576" />
      <note tick="73344" />
      <note tick="73920" />
      <note tick="74112" />
      <note tick="74496" />
      <note tick="74880" />
      <note tick="75264" />
      <note tick="75840" />
      <note tick="76128" />
      <note tick="76608" />
      <note tick="76800" />
      <note tick="77568" />
      <note tick="78912" />
      <note tick="79296" />
      <note tick="80064" />
      <note tick="80256" />
      <note tick="80448" />
      <note tick="80640" />
      <note tick="81600" />
      <note tick="82176" />
      <note tick="82752" />
      <note tick="84288" />
      <note tick="84768" />
      <note tick="84864" />
      <note tick="85248" />
      <note tick="85536" />
      <note tick="86208" />
      <note tick="87168" />
      <note tick="87552" />
      <note tick="88512" />
      <note tick="89088" />
      <note tick="90240" />
      <note tick="91776" />
      <note tick="92352" />
      <note tick="93312" />
      <note tick="94080" />
      <note tick="94560" />
      <note tick="94848" />
      <note tick="95232" />
    </track>
    <track idx="6">
      <note tick="2880" />
      <note tick="3072" />
      <note tick="9216" />
      <note tick="11040" />
      <note tick="11520" />
      <note tick="11808" />
      <note tick="12480" />
      <note tick="15744" />
      <note tick="16512" />
      <note tick="17280" />
      <note tick="18048" />
      <note tick="20352" />
      <note tick="21120" />
      <note tick="21504" />
      <note tick="23040" />
      <note tick="24576" />
      <note tick="25344" />
      <note tick="26496" />
      <note tick="27072" />
      <note tick="27648" />
      <note tick="28800" />
      <note tick="29376" />
      <note tick="29760" />
      <note tick="30336" />
      <note tick="30720" />
      <note tick="31488" />
      <note tick="32640" />
      <note tick="33120" />
      <note tick="33408" />
      <note tick="33984" />
      <note tick="34368" />
      <note tick="34752" />
      <note tick="35136" />
      <note tick="35712" />
      <note tick="36480" />
      <note tick="37248" />
      <note tick="38016" />
      <note tick="38400" />
      <note tick="38496" />
      <note tick="39552" />
      <note tick="39936" />
      <note tick="40704" />
      <note tick="41856" />
      <note tick="42624" />
      <note tick="43008" />
      <note tick="44352" />
      <note tick="45120" />
      <note tick="46464" />
      <note tick="47232" />
      <note tick="47808" />
      <note tick="48192" />
      <note tick="48768" />
      <note tick="49536" />
      <note tick="50304" />
      <note tick="51072" />
      <note tick="51648" />
      <note tick="52032" />
      <note tick="52224" />
      <note tick="53184" />
      <note tick="54144" />
      <note tick="55488" />
      <note tick="57024" />
      <note tick="58368" />
      <note tick="59904" />
      <note tick="60480" />
      <note tick="61056" />
      <note tick="61632" />
      <note tick="62400" />
      <note tick="63552" />
      <note tick="63840" />
      <note tick="64128" />
      <note tick="64512" />
      <note tick="66816" />
      <note tick="67584" />
      <note tick="69120" />
      <note tick="69216" />
      <note tick="70272" />
      <note tick="70464" />
      <note tick="71040" />
      <note tick="71424" />
      <note tick="72960" />
      <note tick="73152" />
      <note tick="73344" />
      <note tick="73536" />
      <note tick="73728" />
      <note tick="74688" />
      <note tick="75072" />
      <note tick="75648" />
      <note tick="76128" />
      <note tick="76416" />
      <note tick="77184" />
      <note tick="77952" />
      <note tick="78336" />
      <note tick="78624" />
      <note tick="79104" />
      <note tick="79680" />
      <note tick="81024" />
      <note tick="81408" />
      <note tick="82080" />
      <note tick="82368" />
      <note tick="82752" />
      <note tick="82944" />
      <note tick="83904" />
      <note tick="85248" />
      <note tick="85536" />
      <note tick="86016" />
      <note tick="87360" />
      <note tick="88320" />
      <note tick="88704" />
      <note tick="89280" />
      <note tick="91008" />
      <note tick="92160" />
      <note tick="94080" />
      <note tick="94848" />
    </track>
  </note_list>
</root>