<?xml version="1.0" encoding="utf-8" standalone="no"?>
<root>
  <header>
    <songinfo tempo="110" tpm="1536" start_tick="0" end_tick="101376" tick="101376" ms="144000" tps="704" />
  </header>
  <tempo>
    <tempo tick="0" tempo="110" tps="704" />
  </tempo>
  <note_list>
    <track idx="3">
      <note tick="3264" />
      <note tick="5184" />
      <note tick="5376" />
      <note tick="5664" />
      <note tick="6144" />
      <note tick="9024" />
      <note tick="9408" />
      <note tick="11328" />
      <note tick="11520" />
      <note tick="11808" />
      <note tick="12288" />
      <note tick="15360" />
      <note tick="16896" />
      <note tick="18432" />
      <note tick="19200" />
      <note tick="19968" />
      <note tick="21888" />
      <note tick="22656" />
      <note tick="23424" />
      <note tick="24192" />
      <note tick="26112" />
      <note tick="27456" />
      <note tick="28416" />
      <note tick="29184" />
      <note tick="29952" />
      <note tick="30912" />
      <note tick="31296" />
      <note tick="32256" />
      <note tick="33024" />
      <note tick="33600" />
      <note tick="33792" />
      <note tick="34560" />
      <note tick="35328" />
      <note tick="35712" />
      <note tick="36096" />
      <note tick="36480" />
      <note tick="36864" />
      <note tick="39264" />
      <note tick="39360" />
      <note tick="39744" />
    </track>
    <track idx="4">
      <note tick="3648" />
      <note tick="4032" />
      <note tick="4416" />
      <note tick="4800" />
      <note tick="4992" />
      <note tick="5952" />
      <note tick="6720" />
      <note tick="7104" />
      <note tick="7488" />
      <note tick="8064" />
      <note tick="8736" />
      <note tick="9792" />
      <note tick="10176" />
      <note tick="10560" />
      <note tick="10944" />
      <note tick="11136" />
      <note tick="12096" />
      <note tick="12864" />
      <note tick="13248" />
      <note tick="13632" />
      <note tick="14016" />
      <note tick="14784" />
      <note tick="15072" />
      <note tick="16128" />
      <note tick="17664" />
      <note tick="17856" />
      <note tick="20736" />
      <note tick="20928" />
      <note tick="21408" />
      <note tick="24960" />
      <note tick="25728" />
      <note tick="26880" />
      <note tick="27552" />
      <note tick="27840" />
      <note tick="28224" />
      <note tick="28608" />
      <note tick="28992" />
      <note tick="29568" />
      <note tick="30144" />
      <note tick="30720" />
      <note tick="31872" />
      <note tick="32256" />
      <note tick="33408" />
      <note tick="33696" />
      <note tick="34176" />
      <note tick="34944" />
      <note tick="35520" />
      <note tick="35904" />
      <note tick="36288" />
      <note tick="36672" />
      <note tick="37632" />
      <note tick="38976" />
      <note tick="39072" />
      <note tick="39552" />
    </track>
    <track idx="5">
      <note tick="3648" />
      <note tick="4032" />
      <note tick="4416" />
      <note tick="5952" />
      <note tick="6720" />
      <note tick="7104" />
      <note tick="7488" />
      <note tick="8448" />
      <note tick="9024" />
      <note tick="9792" />
      <note tick="10176" />
      <note tick="10560" />
      <note tick="12096" />
      <note tick="12864" />
      <note tick="13248" />
      <note tick="13632" />
      <note tick="14208" />
      <note tick="14976" />
      <note tick="18816" />
      <note tick="19584" />
      <note tick="20832" />
      <note tick="21312" />
      <note tick="22272" />
      <note tick="23808" />
      <note tick="24000" />
      <note tick="26496" />
      <note tick="26976" />
      <note tick="27264" />
      <note tick="27648" />
      <note tick="28032" />
      <note tick="28800" />
      <note tick="30144" />
      <note tick="30528" />
      <note tick="31104" />
      <note tick="31680" />
      <note tick="32064" />
      <note tick="32448" />
      <note tick="32832" />
      <note tick="33216" />
      <note tick="33792" />
      <note tick="34176" />
      <note tick="34560" />
      <note tick="34944" />
      <note tick="35328" />
      <note tick="36096" />
      <note tick="36288" />
      <note tick="37248" />
      <note tick="38016" />
      <note tick="38688" />
      <note tick="38784" />
      <note tick="39744" />
    </track>
    <track idx="6">
      <note tick="2880" />
      <note tick="3072" />
      <note tick="4896" />
      <note tick="5376" />
      <note tick="5664" />
      <note tick="6336" />
      <note tick="9216" />
      <note tick="11040" />
      <note tick="11520" />
      <note tick="11808" />
      <note tick="12480" />
      <note tick="15744" />
      <note tick="16512" />
      <note tick="17280" />
      <note tick="18048" />
      <note tick="20352" />
      <note tick="21120" />
      <note tick="21504" />
      <note tick="23040" />
      <note tick="24576" />
      <note tick="25344" />
      <note tick="26496" />
      <note tick="27072" />
      <note tick="27648" />
      <note tick="28800" />
      <note tick="29376" />
      <note tick="29760" />
      <note tick="30336" />
      <note tick="30720" />
      <note tick="31488" />
      <note tick="32640" />
      <note tick="33120" />
      <note tick="33408" />
      <note tick="33984" />
      <note tick="34368" />
      <note tick="34752" />
      <note tick="35136" />
      <note tick="35712" />
      <note tick="36480" />
      <note tick="37248" />
      <note tick="38016" />
      <note tick="38400" />
      <note tick="38496" />
      <note tick="39552" />
    </track>
  </note_list>
</root>