<?xml version="1.0" encoding="utf-8" standalone="no"?>
<root>
  <header>
    <songinfo tempo="150" tpm="1536" start_tick="0" end_tick="135168" tick="135168" ms="140800" tps="960" />
  </header>
  <tempo>
    <tempo tick="0" tempo="150" tps="960" />
  </tempo>
  <note_list>
    <track idx="3">
      <note tick="0" />
      <note tick="1536" />
      <note tick="4224" />
      <note tick="5760" />
      <note tick="7680" />
      <note tick="8448" />
      <note tick="9216" />
      <note tick="9344" />
      <note tick="9600" />
      <note tick="9728" />
      <note tick="9984" />
      <note tick="10112" />
      <note tick="10367" />
      <note tick="10495" />
      <note tick="10752" />
      <note tick="11136" />
      <note tick="11520" />
      <note tick="11903" />
    </track>
    <track idx="4">
      <note tick="384" />
      <note tick="1920" />
      <note tick="3840" />
      <note tick="5376" />
      <note tick="6240" />
      <note tick="6432" />
      <note tick="6624" />
      <note tick="6816" />
      <note tick="7008" />
      <note tick="7200" />
      <note tick="7392" />
      <note tick="7584" />
      <note tick="7808" />
      <note tick="8320" />
      <note tick="8576" />
      <note tick="9088" />
      <note tick="9471" />
      <note tick="9856" />
      <note tick="10240" />
      <note tick="10624" />
      <note tick="10752" />
      <note tick="10880" />
      <note tick="11136" />
      <note tick="11264" />
      <note tick="11520" />
      <note tick="11648" />
      <note tick="11903" />
      <note tick="12031" />
    </track>
    <track idx="5">
      <note tick="768" />
      <note tick="2304" />
      <note tick="3456" />
      <note tick="4992" />
      <note tick="6144" />
      <note tick="6336" />
      <note tick="6528" />
      <note tick="6720" />
      <note tick="6912" />
      <note tick="7104" />
      <note tick="7296" />
      <note tick="7488" />
      <note tick="7935" />
      <note tick="8192" />
      <note tick="8704" />
      <note tick="8959" />
      <note tick="9216" />
      <note tick="9344" />
      <note tick="9600" />
      <note tick="9728" />
      <note tick="9984" />
      <note tick="10112" />
      <note tick="10367" />
      <note tick="10495" />
      <note tick="11007" />
      <note tick="11392" />
      <note tick="11776" />
      <note tick="12160" />
    </track>
    <track idx="6">
      <note tick="1152" />
      <note tick="2688" />
      <note tick="3072" />
      <note tick="4608" />
      <note tick="6336" />
      <note tick="6720" />
      <note tick="7104" />
      <note tick="7488" />
      <note tick="8064" />
      <note tick="8831" />
      <note tick="9216" />
      <note tick="9600" />
      <note tick="9984" />
      <note tick="10367" />
      <note tick="10752" />
      <note tick="10880" />
      <note tick="11136" />
      <note tick="11264" />
      <note tick="11520" />
      <note tick="11648" />
      <note tick="11903" />
      <note tick="12031" />
    </track>
  </note_list>
</root>