<?xml version="1.0" encoding="utf-8" standalone="no"?>
<root>
  <header>
    <songinfo tempo="150" tpm="1536" start_tick="0" end_tick="135168" tick="135168" ms="140800" tps="960" />
  </header>
  <tempo>
    <tempo tick="0" tempo="150" tps="960" />
  </tempo>
  <note_list>
    <track idx="3">
      <note tick="0" />
      <note tick="1536" />
      <note tick="3072" />
      <note tick="3840" />
      <note tick="4608" />
      <note tick="5376" />
      <note tick="6144" />
    </track>
    <track idx="4">
      <note tick="384" />
      <note tick="1152" />
      <note tick="2304" />
      <note tick="3456" />
      <note tick="4224" />
      <note tick="4992" />
      <note tick="5760" />
    </track>
    <track idx="5">
      <note tick="768" />
      <note tick="1920" />
      <note tick="2688" />
      <note tick="3456" />
      <note tick="4224" />
      <note tick="4992" />
      <note tick="5760" />
    </track>
    <track idx="6">
      <note tick="0" />
      <note tick="1536" />
      <note tick="3072" />
      <note tick="3840" />
      <note tick="4608" />
      <note tick="5376" />
      <note tick="6144" />
    </track>
  </note_list>
</root>